<svg width="3338" height="897" xmlns="http://www.w3.org/2000/svg" xmlns:xlink="http://www.w3.org/1999/xlink" overflow="hidden"><defs><clipPath id="clip0"><rect x="512" y="1388" width="3338" height="897"/></clipPath><clipPath id="clip1"><rect x="1536" y="1388" width="2315" height="867"/></clipPath></defs><g clip-path="url(#clip0)" transform="translate(-512 -1388)"><path d="M514.5 1555.5 987.5 1701.27 987.5 2274.5 514.5 2128.73Z" stroke="#000000" stroke-width="4.58333" stroke-miterlimit="8" fill-rule="evenodd"/><path d="M0 454.999 141.218 0 720 0 578.782 454.999Z" stroke="#000000" stroke-width="4.58333" stroke-miterlimit="8" fill-rule="evenodd" transform="matrix(6.12323e-17 1 1 -6.12323e-17 994.5 1561.5)"/><path d="M523.5 1545.43 983.746 1392.5 1443.5 1545.89 983.746 1685.5 523.5 1545.43Z" stroke="#000000" stroke-width="4.58333" stroke-miterlimit="8" fill="#FFFFFF" fill-rule="evenodd"/><path d="M597.5 1738.5C597.5 1714.75 616.752 1695.5 640.5 1695.5 664.248 1695.5 683.5 1714.75 683.5 1738.5 683.5 1762.25 664.248 1781.5 640.5 1781.5 616.752 1781.5 597.5 1762.25 597.5 1738.5Z" stroke="#FFFFFF" stroke-width="4.58333" stroke-miterlimit="8" fill="#FFFFFF" fill-rule="evenodd"/><path d="M597.5 2033.5C597.5 2009.75 616.752 1990.5 640.5 1990.5 664.248 1990.5 683.5 2009.75 683.5 2033.5 683.5 2057.25 664.248 2076.5 640.5 2076.5 616.752 2076.5 597.5 2057.25 597.5 2033.5Z" stroke="#FFFFFF" stroke-width="4.58333" stroke-miterlimit="8" fill="#FFFFFF" fill-rule="evenodd"/><path d="M824.5 1940.5C824.5 1916.75 843.528 1897.5 867 1897.5 890.472 1897.5 909.5 1916.75 909.5 1940.5 909.5 1964.25 890.472 1983.5 867 1983.5 843.528 1983.5 824.5 1964.25 824.5 1940.5Z" stroke="#FFFFFF" stroke-width="4.58333" stroke-miterlimit="8" fill="#FFFFFF" fill-rule="evenodd"/><path d="M1071.5 1803.5C1071.5 1779.75 1090.75 1760.5 1114.5 1760.5 1138.25 1760.5 1157.5 1779.75 1157.5 1803.5 1157.5 1827.25 1138.25 1846.5 1114.5 1846.5 1090.75 1846.5 1071.5 1827.25 1071.5 1803.5Z" stroke="#FFFFFF" stroke-width="4.58333" stroke-miterlimit="8" fill="#FFFFFF" fill-rule="evenodd"/><path d="M1074.5 2133.5C1074.5 2109.75 1093.75 2090.5 1117.5 2090.5 1141.25 2090.5 1160.5 2109.75 1160.5 2133.5 1160.5 2157.25 1141.25 2176.5 1117.5 2176.5 1093.75 2176.5 1074.5 2157.25 1074.5 2133.5Z" stroke="#FFFFFF" stroke-width="4.58333" stroke-miterlimit="8" fill="#FFFFFF" fill-rule="evenodd"/><path d="M1315.5 2026.5C1315.5 2002.75 1334.75 1983.5 1358.5 1983.5 1382.25 1983.5 1401.5 2002.75 1401.5 2026.5 1401.5 2050.25 1382.25 2069.5 1358.5 2069.5 1334.75 2069.5 1315.5 2050.25 1315.5 2026.5Z" stroke="#FFFFFF" stroke-width="4.58333" stroke-miterlimit="8" fill="#FFFFFF" fill-rule="evenodd"/><path d="M1312.5 1728C1312.5 1704.53 1331.75 1685.5 1355.5 1685.5 1379.25 1685.5 1398.5 1704.53 1398.5 1728 1398.5 1751.47 1379.25 1770.5 1355.5 1770.5 1331.75 1770.5 1312.5 1751.47 1312.5 1728Z" stroke="#FFFFFF" stroke-width="4.58333" stroke-miterlimit="8" fill="#FFFFFF" fill-rule="evenodd"/><path d="M1202.5 1926.5C1202.5 1902.75 1221.75 1883.5 1245.5 1883.5 1269.25 1883.5 1288.5 1902.75 1288.5 1926.5 1288.5 1950.25 1269.25 1969.5 1245.5 1969.5 1221.75 1969.5 1202.5 1950.25 1202.5 1926.5Z" stroke="#FFFFFF" stroke-width="4.58333" stroke-miterlimit="8" fill="#FFFFFF" fill-rule="evenodd"/><path d="M640 1781 640 1990.4" stroke="#FFFFFF" stroke-width="27.5" stroke-miterlimit="8" fill="#FFFFFF" fill-rule="evenodd"/><path d="M669 1751 841.758 1912.37" stroke="#FFFFFF" stroke-width="27.5" stroke-miterlimit="8" fill="#FFFFFF" fill-rule="evenodd"/><path d="M0 0 177.147 83.4939" stroke="#FFFFFF" stroke-width="27.5" stroke-miterlimit="8" fill="#FFFFFF" fill-rule="evenodd" transform="matrix(1 0 0 -1 665 2038.49)"/><path d="M0 0 196.303 58.2823" stroke="#FFFFFF" stroke-width="27.5" stroke-miterlimit="8" fill="#FFFFFF" fill-rule="evenodd" transform="matrix(1 0 0 -1 1138 1798.28)"/><path d="M0 0 188.989 85.9079" stroke="#FFFFFF" stroke-width="27.5" stroke-miterlimit="8" fill="#FFFFFF" fill-rule="evenodd" transform="matrix(1 0 0 -1 1148 2123.91)"/><path d="M1095 1795 1380.53 2051.02" stroke="#FFFFFF" stroke-width="27.5" stroke-miterlimit="8" fill="#FFFFFF" fill-rule="evenodd"/><path d="M913.5 1525.5C913.5 1501.75 944.616 1482.5 983 1482.5 1021.38 1482.5 1052.5 1501.75 1052.5 1525.5 1052.5 1549.25 1021.38 1568.5 983 1568.5 944.616 1568.5 913.5 1549.25 913.5 1525.5Z" stroke="#000000" stroke-width="4.58333" stroke-miterlimit="8" fill-rule="evenodd"/><g clip-path="url(#clip1)"><text fill="#FFFFFF" font-family="Stick,Stick_MSFontService,sans-serif" font-weight="400" font-size="527" transform="matrix(1 0 0 1 1569.56 2052)">DICE SE</text></g></g></svg>