<svg width="3262" height="917" xmlns="http://www.w3.org/2000/svg" xmlns:xlink="http://www.w3.org/1999/xlink" overflow="hidden"><defs><clipPath id="clip0"><rect x="606" y="199" width="3262" height="917"/></clipPath><clipPath id="clip1"><rect x="1581" y="199" width="2287" height="867"/></clipPath></defs><g clip-path="url(#clip0)" transform="translate(-606 -199)"><path d="M608.5 387.5 1081.5 533.268 1081.5 1105.5 608.5 959.731Z" stroke="#000000" stroke-width="4.58333" stroke-miterlimit="8" fill="#FFFFFF" fill-rule="evenodd"/><path d="M0 455 141.218 0 720 0 578.782 455Z" stroke="#000000" stroke-width="4.58333" stroke-miterlimit="8" fill="#FFFFFF" fill-rule="evenodd" transform="matrix(6.12323e-17 1 1 -6.12323e-17 1088.5 392.5)"/><path d="M617.5 376.428 1078.25 223.5 1538.5 376.894 1078.25 516.5 617.5 376.428Z" stroke="#000000" stroke-width="4.58333" stroke-miterlimit="8" fill-rule="evenodd"/><path d="M691.5 569.5C691.5 545.752 710.752 526.5 734.5 526.5 758.248 526.5 777.5 545.752 777.5 569.5 777.5 593.248 758.248 612.5 734.5 612.5 710.752 612.5 691.5 593.248 691.5 569.5Z" stroke="#000000" stroke-width="4.58333" stroke-miterlimit="8" fill-rule="evenodd"/><path d="M691.5 864.5C691.5 840.752 710.752 821.5 734.5 821.5 758.248 821.5 777.5 840.752 777.5 864.5 777.5 888.248 758.248 907.5 734.5 907.5 710.752 907.5 691.5 888.248 691.5 864.5Z" stroke="#000000" stroke-width="4.58333" stroke-miterlimit="8" fill-rule="evenodd"/><path d="M918.5 772.5C918.5 748.752 937.752 729.5 961.5 729.5 985.248 729.5 1004.5 748.752 1004.5 772.5 1004.5 796.248 985.248 815.5 961.5 815.5 937.752 815.5 918.5 796.248 918.5 772.5Z" stroke="#000000" stroke-width="4.58333" stroke-miterlimit="8" fill-rule="evenodd"/><path d="M1165.5 634.5C1165.5 610.752 1184.75 591.5 1208.5 591.5 1232.25 591.5 1251.5 610.752 1251.5 634.5 1251.5 658.248 1232.25 677.5 1208.5 677.5 1184.75 677.5 1165.5 658.248 1165.5 634.5Z" stroke="#000000" stroke-width="4.58333" stroke-miterlimit="8" fill-rule="evenodd"/><path d="M1169.5 964.5C1169.5 940.752 1188.75 921.5 1212.5 921.5 1236.25 921.5 1255.5 940.752 1255.5 964.5 1255.5 988.248 1236.25 1007.5 1212.5 1007.5 1188.75 1007.5 1169.5 988.248 1169.5 964.5Z" stroke="#000000" stroke-width="4.58333" stroke-miterlimit="8" fill-rule="evenodd"/><path d="M1409.5 858C1409.5 834.528 1428.75 815.5 1452.5 815.5 1476.25 815.5 1495.5 834.528 1495.5 858 1495.5 881.472 1476.25 900.5 1452.5 900.5 1428.75 900.5 1409.5 881.472 1409.5 858Z" stroke="#000000" stroke-width="4.58333" stroke-miterlimit="8" fill-rule="evenodd"/><path d="M1406.5 559.5C1406.5 535.752 1425.75 516.5 1449.5 516.5 1473.25 516.5 1492.5 535.752 1492.5 559.5 1492.5 583.248 1473.25 602.5 1449.5 602.5 1425.75 602.5 1406.5 583.248 1406.5 559.5Z" stroke="#000000" stroke-width="4.58333" stroke-miterlimit="8" fill-rule="evenodd"/><path d="M1296.5 758.5C1296.5 734.752 1315.75 715.5 1339.5 715.5 1363.25 715.5 1382.5 734.752 1382.5 758.5 1382.5 782.248 1363.25 801.5 1339.5 801.5 1315.75 801.5 1296.5 782.248 1296.5 758.5Z" stroke="#000000" stroke-width="4.58333" stroke-miterlimit="8" fill-rule="evenodd"/><path d="M734 612 734 821.396" stroke="#000000" stroke-width="27.5" stroke-miterlimit="8" fill="none" fill-rule="evenodd"/><path d="M763 583 935.758 744.371" stroke="#000000" stroke-width="27.5" stroke-miterlimit="8" fill="none" fill-rule="evenodd"/><path d="M0 0 177.147 83.4939" stroke="#000000" stroke-width="27.5" stroke-miterlimit="8" fill="none" fill-rule="evenodd" transform="matrix(1 0 0 -1 759 869.494)"/><path d="M0 0 196.303 58.2823" stroke="#000000" stroke-width="27.5" stroke-miterlimit="8" fill="none" fill-rule="evenodd" transform="matrix(1 0 0 -1 1232 629.282)"/><path d="M0 0 188.989 85.9079" stroke="#000000" stroke-width="27.5" stroke-miterlimit="8" fill="none" fill-rule="evenodd" transform="matrix(1 0 0 -1 1242 954.908)"/><path d="M1190 626 1475.53 882.018" stroke="#000000" stroke-width="27.5" stroke-miterlimit="8" fill="none" fill-rule="evenodd"/><path d="M1007.5 356.5C1007.5 332.752 1038.84 313.5 1077.5 313.5 1116.16 313.5 1147.5 332.752 1147.5 356.5 1147.5 380.248 1116.16 399.5 1077.5 399.5 1038.84 399.5 1007.5 380.248 1007.5 356.5Z" stroke="#000000" stroke-width="4.58333" stroke-miterlimit="8" fill="#FFFFFF" fill-rule="evenodd"/><g clip-path="url(#clip1)"><text font-family="Stick,Stick_MSFontService,sans-serif" font-weight="400" font-size="527" transform="matrix(1 0 0 1 1614.25 862)">DICE SE</text></g></g></svg>